<?xml version="1.0" encoding="utf-8"?>
<!-- Svg Vector Icons : http://www.onlinewebfonts.com/icon -->
<!DOCTYPE svg PUBLIC "-//W3C//DTD SVG 1.1//EN" "http://www.w3.org/Graphics/SVG/1.1/DTD/svg11.dtd">
<svg version="1.1" xmlns="http://www.w3.org/2000/svg" xmlns:xlink="http://www.w3.org/1999/xlink" x="0px" y="0px" viewBox="0 0 1000 1000" enable-background="new 0 0 1000 1000" xml:space="preserve">
<metadata> Svg Vector Icons : http://www.onlinewebfonts.com/icon </metadata>
<g><g><g><path d="M10,330.9L263.1,77.8l25.3,25.3L35.3,356.3L10,330.9z M54.8,375.8l253.1-253.1l25.3,25.3L80.1,401.1L54.8,375.8z M711.6,103.2l25.3-25.3L990,330.9l-25.3,25.3L711.6,103.2z M919.8,401L666.8,147.9l25.3-25.3l253.1,253.1L919.8,401z"/><path d="M774.8,546.1l126.5-126.5L648.3,166.5L521.8,293l91.1,91.1C589.3,407.7,547.4,449.7,500,497c-47.4-47.4-89.4-89.4-112.9-112.9l91.1-91.1L351.6,166.5L98.6,419.6l126.5,126.5l91.2-91.1c23.5,23.5,65.5,65.5,112.9,112.9C353.9,643,281.5,715.5,257.9,739.1c-29.9-5.9-62.6,2.1-84.9,24.4c-17.6,17.5-27.3,40.9-27.3,65.6c0,24.9,9.7,48.2,27.3,65.8c17.5,17.5,40.9,27.3,65.7,27.3c24.8,0,48.1-9.7,65.7-27.3c23.1-23.1,31.4-55.6,24.9-85.5c24.2-24.2,96.2-96.2,170.7-170.7c74.5,74.5,146.5,146.4,170.7,170.7c-6.4,29.9,1.8,62.3,24.9,85.5c17.5,17.5,40.9,27.3,65.7,27.3c24.8,0,48.2-9.7,65.7-27.3c17.6-17.5,27.2-40.9,27.2-65.8c0-24.7-9.7-48.1-27.2-65.6c-22.3-22.3-54.9-30.4-84.9-24.4C718.5,715.5,646,643,570.8,567.9c47.4-47.4,89.4-89.5,112.9-112.9L774.8,546.1z M279,869.6c-21.6,21.6-59.2,21.6-80.8,0c-10.8-10.8-16.7-25.2-16.7-40.5c0-15.3,5.9-29.6,16.7-40.3c10.8-10.8,25.1-16.8,40.4-16.8c15.2,0,29.6,6,40.4,16.8C301.3,811,301.3,847.3,279,869.6z M801.6,788.8c10.8,10.8,16.7,25.2,16.7,40.3c0,15.3-5.9,29.6-16.7,40.5c-21.6,21.6-59.2,21.6-80.8,0c-22.3-22.3-22.3-58.6,0-80.9c10.8-10.8,25.2-16.7,40.4-16.7C776.4,772,790.8,778.1,801.6,788.8z"/></g></g><g></g><g></g><g></g><g></g><g></g><g></g><g></g><g></g><g></g><g></g><g></g><g></g><g></g><g></g><g></g></g>
</svg>